# Blender v2.78 (sub 0) OBJ File: ''
# www.blender.org
mtllib axisBox.mtl
o Cube
v 1.014365 0.050100 -0.229209
v 1.458254 0.057462 -0.234169
v 1.015128 0.006773 -0.225220
v 1.459018 0.014134 -0.230180
v 1.015958 -0.034943 -0.212855
v 1.459847 -0.027581 -0.217815
v 1.016823 -0.073443 -0.192587
v 1.460712 -0.066082 -0.197547
v 1.017689 -0.107248 -0.165197
v 1.461579 -0.099887 -0.170157
v 1.018524 -0.135060 -0.131737
v 1.462414 -0.127698 -0.136697
v 1.019296 -0.155808 -0.093492
v 1.463186 -0.148447 -0.098452
v 1.019974 -0.168697 -0.051932
v 1.463864 -0.161336 -0.056892
v 1.020533 -0.173230 -0.008655
v 1.464422 -0.165869 -0.013615
v 1.020951 -0.169234 0.034676
v 1.464840 -0.161872 0.029716
v 1.021212 -0.156861 0.076397
v 1.465101 -0.149500 0.071437
v 1.021306 -0.136588 0.114904
v 1.465196 -0.129227 0.109944
v 1.021229 -0.109194 0.148717
v 1.465119 -0.101833 0.143757
v 1.020985 -0.075731 0.176537
v 1.464875 -0.068370 0.171577
v 1.020583 -0.037485 0.197294
v 1.464473 -0.030124 0.192334
v 1.020038 0.004074 0.210191
v 1.463928 0.011435 0.205231
v 1.019371 0.047349 0.214733
v 1.463261 0.054710 0.209773
v 1.018608 0.090676 0.210744
v 1.462498 0.098037 0.205784
v 1.017778 0.132392 0.198379
v 1.461668 0.139753 0.193419
v 1.016913 0.170892 0.178111
v 1.460803 0.178253 0.173151
v 1.016046 0.204697 0.150721
v 1.459936 0.212058 0.145761
v 1.015211 0.232509 0.117261
v 1.459101 0.239870 0.112301
v 1.014440 0.253257 0.079016
v 1.458329 0.260618 0.074056
v 1.013762 0.266146 0.037456
v 1.457651 0.273507 0.032496
v 1.013203 0.270679 -0.005821
v 1.457093 0.278040 -0.010781
v 1.012785 0.266683 -0.049153
v 1.456675 0.274044 -0.054113
v 1.012524 0.254310 -0.090874
v 1.456414 0.261671 -0.095834
v 1.012430 0.234037 -0.129380
v 1.456320 0.241398 -0.134340
v 1.012506 0.206643 -0.163193
v 1.456396 0.214004 -0.168153
v 1.012750 0.173180 -0.191013
v 1.456640 0.180541 -0.195973
v 1.013153 0.134934 -0.211770
v 1.457042 0.142295 -0.216730
v 1.013698 0.093375 -0.224667
v 1.457588 0.100736 -0.229627
v 0.012876 0.974218 -0.262779
v 0.012876 1.449654 -0.262779
v 0.059252 0.974218 -0.258211
v 0.059252 1.449654 -0.258211
v 0.103847 0.974218 -0.244684
v 0.103847 1.449654 -0.244684
v 0.144945 0.974218 -0.222716
v 0.144945 1.449654 -0.222716
v 0.180968 0.974218 -0.193153
v 0.180968 1.449654 -0.193153
v 0.210531 0.974218 -0.157130
v 0.210531 1.449654 -0.157130
v 0.232499 0.974218 -0.116032
v 0.232499 1.449654 -0.116032
v 0.246026 0.974218 -0.071438
v 0.246026 1.449654 -0.071438
v 0.250594 0.974218 -0.025061
v 0.250594 1.449654 -0.025061
v 0.246026 0.974218 0.021315
v 0.246026 1.449654 0.021315
v 0.232499 0.974218 0.065909
v 0.232499 1.449654 0.065909
v 0.210531 0.974218 0.107008
v 0.210531 1.449654 0.107008
v 0.180968 0.974218 0.143031
v 0.180968 1.449654 0.143031
v 0.144945 0.974218 0.172594
v 0.144945 1.449654 0.172594
v 0.103847 0.974218 0.194561
v 0.103847 1.449654 0.194561
v 0.059252 0.974218 0.208089
v 0.059252 1.449654 0.208089
v 0.012876 0.974218 0.212657
v 0.012876 1.449654 0.212657
v -0.033501 0.974218 0.208089
v -0.033501 1.449654 0.208089
v -0.078095 0.974218 0.194561
v -0.078095 1.449654 0.194561
v -0.119193 0.974218 0.172594
v -0.119193 1.449654 0.172594
v -0.155216 0.974218 0.143031
v -0.155216 1.449654 0.143031
v -0.184779 0.974218 0.107008
v -0.184779 1.449654 0.107008
v -0.206747 0.974218 0.065909
v -0.206747 1.449654 0.065909
v -0.220274 0.974218 0.021315
v -0.220274 1.449654 0.021315
v -0.224842 0.974218 -0.025062
v -0.224842 1.449654 -0.025062
v -0.220274 0.974218 -0.071438
v -0.220274 1.449654 -0.071438
v -0.206747 0.974218 -0.116032
v -0.206747 1.449654 -0.116032
v -0.184779 0.974218 -0.157130
v -0.184779 1.449654 -0.157130
v -0.155216 0.974218 -0.193153
v -0.155216 1.449654 -0.193153
v -0.119193 0.974218 -0.222717
v -0.119193 1.449654 -0.222717
v -0.078094 0.974218 -0.244684
v -0.078094 1.449654 -0.244684
v -0.033500 0.974218 -0.258212
v -0.033500 1.449654 -0.258212
v 0.000000 0.209974 -1.402745
v 0.000000 0.209974 -0.982798
v -0.040964 0.205939 -1.402745
v -0.040964 0.205939 -0.982798
v -0.080353 0.193990 -1.402745
v -0.080353 0.193990 -0.982798
v -0.116655 0.174587 -1.402745
v -0.116655 0.174587 -0.982798
v -0.148474 0.148474 -1.402745
v -0.148474 0.148474 -0.982798
v -0.174587 0.116655 -1.402745
v -0.174587 0.116655 -0.982798
v -0.193990 0.080353 -1.402745
v -0.193990 0.080353 -0.982798
v -0.205939 0.040964 -1.402745
v -0.205939 0.040964 -0.982798
v -0.209974 0.000000 -1.402745
v -0.209974 0.000000 -0.982798
v -0.205939 -0.040964 -1.402745
v -0.205939 -0.040964 -0.982798
v -0.193990 -0.080353 -1.402745
v -0.193990 -0.080353 -0.982798
v -0.174587 -0.116655 -1.402745
v -0.174587 -0.116655 -0.982798
v -0.148474 -0.148474 -1.402745
v -0.148474 -0.148474 -0.982798
v -0.116655 -0.174587 -1.402745
v -0.116655 -0.174587 -0.982797
v -0.080353 -0.193990 -1.402745
v -0.080353 -0.193990 -0.982797
v -0.040964 -0.205939 -1.402745
v -0.040964 -0.205939 -0.982797
v 0.000000 -0.209974 -1.402745
v 0.000000 -0.209974 -0.982797
v 0.040964 -0.205939 -1.402745
v 0.040964 -0.205939 -0.982797
v 0.080354 -0.193990 -1.402745
v 0.080354 -0.193990 -0.982797
v 0.116655 -0.174587 -1.402745
v 0.116655 -0.174587 -0.982797
v 0.148474 -0.148474 -1.402745
v 0.148474 -0.148474 -0.982798
v 0.174587 -0.116655 -1.402745
v 0.174587 -0.116655 -0.982798
v 0.193990 -0.080353 -1.402745
v 0.193990 -0.080353 -0.982798
v 0.205939 -0.040964 -1.402745
v 0.205939 -0.040964 -0.982798
v 0.209974 0.000000 -1.402745
v 0.209974 0.000000 -0.982798
v 0.205939 0.040964 -1.402745
v 0.205939 0.040964 -0.982798
v 0.193990 0.080354 -1.402745
v 0.193990 0.080354 -0.982798
v 0.174587 0.116655 -1.402745
v 0.174587 0.116655 -0.982798
v 0.148474 0.148474 -1.402745
v 0.148474 0.148474 -0.982798
v 0.116655 0.174587 -1.402745
v 0.116655 0.174587 -0.982798
v 0.080353 0.193991 -1.402745
v 0.080353 0.193991 -0.982798
v 0.040964 0.205939 -1.402745
v 0.040964 0.205939 -0.982798
v 1.000000 -1.000000 -1.000000
v 1.000000 -1.000000 1.000000
v -1.000000 -1.000000 1.000000
v -1.000000 -1.000000 -1.000000
v 1.000000 1.000000 -0.999999
v 0.999999 1.000000 1.000001
v -1.000000 1.000000 1.000000
v -1.000000 1.000000 -1.000000
vt 0.7684 0.2313
vt 0.7684 0.1577
vt 0.7756 0.1578
vt 0.7756 0.2313
vt 0.7826 0.1580
vt 0.7826 0.2316
vt 0.7890 0.1584
vt 0.7890 0.2319
vt 0.7946 0.1589
vt 0.7946 0.2324
vt 0.7474 0.0741
vt 0.7474 0.0001
vt 0.7531 0.0001
vt 0.7531 0.0740
vt 0.7595 0.0000
vt 0.7595 0.0740
vt 0.7664 0.0000
vt 0.7664 0.0740
vt 0.7736 0.0000
vt 0.7736 0.0740
vt 0.7809 0.0000
vt 0.7809 0.0740
vt 0.7878 0.0000
vt 0.7878 0.0740
vt 0.7943 0.0001
vt 0.7943 0.0740
vt 0.7999 0.0001
vt 0.7999 0.0741
vt 0.7764 0.6679
vt 0.7764 0.7414
vt 0.7708 0.7409
vt 0.7708 0.6674
vt 0.7644 0.7406
vt 0.7644 0.6670
vt 0.7574 0.7403
vt 0.7574 0.6668
vt 0.7502 0.7403
vt 0.7502 0.6667
vt 0.7429 0.7403
vt 0.7429 0.6668
vt 0.7360 0.7406
vt 0.7360 0.6670
vt 0.7296 0.7409
vt 0.7296 0.6674
vt 0.7239 0.7414
vt 0.7239 0.6679
vt 0.7946 0.2325
vt 0.7946 0.3065
vt 0.7890 0.3065
vt 0.7890 0.2325
vt 0.7826 0.3064
vt 0.7826 0.2324
vt 0.7757 0.3064
vt 0.7757 0.2324
vt 0.7684 0.3064
vt 0.7684 0.2324
vt 0.7612 0.3064
vt 0.7612 0.2324
vt 0.7542 0.3064
vt 0.7542 0.2324
vt 0.7478 0.3065
vt 0.7478 0.2325
vt 0.7422 0.3065
vt 0.7422 0.2325
vt 0.7422 0.2324
vt 0.7422 0.1589
vt 0.7478 0.1584
vt 0.7478 0.2319
vt 0.7542 0.1580
vt 0.7542 0.2316
vt 0.6698 0.2574
vt 0.6726 0.2507
vt 0.6766 0.2447
vt 0.6818 0.2395
vt 0.6878 0.2355
vt 0.6945 0.2327
vt 0.7016 0.2313
vt 0.7089 0.2313
vt 0.7160 0.2327
vt 0.7228 0.2355
vt 0.7288 0.2395
vt 0.7339 0.2447
vt 0.7380 0.2507
vt 0.7408 0.2574
vt 0.7422 0.2645
vt 0.7422 0.2718
vt 0.7408 0.2789
vt 0.7380 0.2856
vt 0.7339 0.2916
vt 0.7288 0.2967
vt 0.7228 0.3008
vt 0.7160 0.3035
vt 0.7089 0.3050
vt 0.7016 0.3050
vt 0.6945 0.3035
vt 0.6878 0.3008
vt 0.6818 0.2967
vt 0.6766 0.2916
vt 0.6726 0.2856
vt 0.6698 0.2789
vt 0.6684 0.2718
vt 0.6684 0.2645
vt 0.7612 0.1578
vt 0.7612 0.2313
vt 0.6726 0.2120
vt 0.6698 0.2053
vt 0.6684 0.1981
vt 0.6684 0.1909
vt 0.6698 0.1838
vt 0.6726 0.1771
vt 0.6766 0.1710
vt 0.6818 0.1659
vt 0.6878 0.1619
vt 0.6945 0.1591
vt 0.7016 0.1577
vt 0.7089 0.1577
vt 0.7160 0.1591
vt 0.7228 0.1619
vt 0.7288 0.1659
vt 0.7339 0.1710
vt 0.7380 0.1771
vt 0.7408 0.1838
vt 0.7422 0.1909
vt 0.7422 0.1981
vt 0.7408 0.2052
vt 0.7380 0.2119
vt 0.7339 0.2180
vt 0.7288 0.2231
vt 0.7228 0.2271
vt 0.7160 0.2299
vt 0.7089 0.2313
vt 0.7016 0.2313
vt 0.6945 0.2299
vt 0.6878 0.2271
vt 0.6818 0.2231
vt 0.6766 0.2180
vt 0.6974 0.7460
vt 0.6974 0.6667
vt 0.7050 0.6667
vt 0.7050 0.7460
vt 0.7121 0.6667
vt 0.7121 0.7460
vt 0.7185 0.6667
vt 0.7185 0.7459
vt 0.7239 0.6667
vt 0.7239 0.7459
vt 0.5852 0.6666
vt 0.5852 0.7458
vt 0.5790 0.7458
vt 0.5790 0.6666
vt 0.5719 0.7458
vt 0.5719 0.6666
vt 0.5644 0.7458
vt 0.5644 0.6666
vt 0.5566 0.7458
vt 0.5566 0.6666
vt 0.5489 0.7458
vt 0.5489 0.6666
vt 0.5416 0.7458
vt 0.5416 0.6666
vt 0.5348 0.7458
vt 0.5348 0.6666
vt 0.5290 0.7459
vt 0.5290 0.6666
vt 0.5852 0.7459
vt 0.5852 0.6666
vt 0.5917 0.6666
vt 0.5917 0.7458
vt 0.5990 0.6666
vt 0.5990 0.7458
vt 0.6066 0.6666
vt 0.6066 0.7458
vt 0.6144 0.6666
vt 0.6144 0.7458
vt 0.6220 0.6666
vt 0.6220 0.7458
vt 0.6292 0.6666
vt 0.6292 0.7458
vt 0.6355 0.6666
vt 0.6355 0.7459
vt 0.6409 0.6666
vt 0.6409 0.7459
vt 0.5290 0.6666
vt 0.5290 0.7458
vt 0.5228 0.7458
vt 0.5228 0.6666
vt 0.5158 0.7458
vt 0.5158 0.6666
vt 0.5083 0.7459
vt 0.5083 0.6666
vt 0.5005 0.7459
vt 0.5005 0.6666
vt 0.4928 0.7458
vt 0.4928 0.6666
vt 0.4854 0.7458
vt 0.4854 0.6666
vt 0.4787 0.7458
vt 0.4787 0.6666
vt 0.4729 0.7458
vt 0.4729 0.6666
vt 0.6681 0.7459
vt 0.6681 0.6667
vt 0.6747 0.6667
vt 0.6747 0.7460
vt 0.6820 0.6667
vt 0.6820 0.7460
vt 0.6892 0.0833
vt 0.6964 0.0804
vt 0.7040 0.0788
vt 0.7118 0.0788
vt 0.7194 0.0804
vt 0.7266 0.0833
vt 0.7331 0.0876
vt 0.7386 0.0931
vt 0.7429 0.0996
vt 0.7459 0.1068
vt 0.7474 0.1144
vt 0.7474 0.1222
vt 0.7459 0.1298
vt 0.7429 0.1369
vt 0.7386 0.1434
vt 0.7331 0.1489
vt 0.7266 0.1532
vt 0.7194 0.1562
vt 0.7118 0.1577
vt 0.7040 0.1577
vt 0.6964 0.1562
vt 0.6892 0.1532
vt 0.6827 0.1489
vt 0.6772 0.1434
vt 0.6729 0.1369
vt 0.6699 0.1298
vt 0.6684 0.1222
vt 0.6684 0.1144
vt 0.6699 0.1068
vt 0.6729 0.0996
vt 0.6772 0.0931
vt 0.6827 0.0876
vt 0.6896 0.6667
vt 0.6896 0.7460
vt 0.6964 0.0773
vt 0.6892 0.0744
vt 0.6827 0.0700
vt 0.6772 0.0646
vt 0.6729 0.0581
vt 0.6699 0.0509
vt 0.6684 0.0433
vt 0.6684 0.0355
vt 0.6699 0.0279
vt 0.6729 0.0207
vt 0.6772 0.0143
vt 0.6827 0.0088
vt 0.6892 0.0045
vt 0.6964 0.0015
vt 0.7040 0.0000
vt 0.7118 0.0000
vt 0.7194 0.0015
vt 0.7266 0.0045
vt 0.7331 0.0088
vt 0.7386 0.0143
vt 0.7429 0.0207
vt 0.7459 0.0279
vt 0.7474 0.0355
vt 0.7474 0.0433
vt 0.7459 0.0509
vt 0.7429 0.0581
vt 0.7386 0.0646
vt 0.7331 0.0700
vt 0.7266 0.0744
vt 0.7194 0.0773
vt 0.7118 0.0788
vt 0.7040 0.0788
vt 0.7487 0.8114
vt 0.7487 0.7415
vt 0.7555 0.7415
vt 0.7555 0.8114
vt 0.7621 0.7414
vt 0.7621 0.8114
vt 0.7682 0.7414
vt 0.7682 0.8114
vt 0.7735 0.7414
vt 0.7735 0.8114
vt 0.3838 0.7367
vt 0.3838 0.8066
vt 0.3785 0.8064
vt 0.3785 0.7365
vt 0.3724 0.8063
vt 0.3724 0.7364
vt 0.3659 0.8062
vt 0.3659 0.7363
vt 0.3590 0.8062
vt 0.3590 0.7363
vt 0.3522 0.8062
vt 0.3522 0.7363
vt 0.3456 0.8063
vt 0.3456 0.7364
vt 0.3395 0.8064
vt 0.3395 0.7365
vt 0.3342 0.8066
vt 0.3342 0.7367
vt 0.4334 0.7363
vt 0.4334 0.8062
vt 0.4281 0.8062
vt 0.4281 0.7363
vt 0.4221 0.8063
vt 0.4221 0.7363
vt 0.4155 0.8063
vt 0.4155 0.7363
vt 0.4087 0.8063
vt 0.4087 0.7363
vt 0.4018 0.8063
vt 0.4018 0.7363
vt 0.3953 0.8063
vt 0.3953 0.7363
vt 0.3892 0.8062
vt 0.3892 0.7363
vt 0.3838 0.8062
vt 0.3838 0.7363
vt 0.7474 0.1444
vt 0.7474 0.0745
vt 0.7528 0.0743
vt 0.7528 0.1442
vt 0.7588 0.0742
vt 0.7588 0.1441
vt 0.7654 0.0741
vt 0.7654 0.1440
vt 0.7722 0.0741
vt 0.7722 0.1440
vt 0.7791 0.0741
vt 0.7791 0.1440
vt 0.7857 0.0742
vt 0.7857 0.1441
vt 0.7917 0.0743
vt 0.7917 0.1442
vt 0.7971 0.0745
vt 0.7971 0.1444
vt 0.7239 0.8114
vt 0.7239 0.7414
vt 0.7292 0.7414
vt 0.7292 0.8114
vt 0.7353 0.7414
vt 0.7353 0.8114
vt 0.4483 0.7349
vt 0.4416 0.7363
vt 0.4348 0.7362
vt 0.4281 0.7349
vt 0.4218 0.7323
vt 0.4161 0.7285
vt 0.4113 0.7236
vt 0.4075 0.7179
vt 0.4049 0.7116
vt 0.4035 0.7048
vt 0.4035 0.6980
vt 0.4049 0.6912
vt 0.4075 0.6849
vt 0.4113 0.6792
vt 0.4161 0.6744
vt 0.4218 0.6706
vt 0.4281 0.6679
vt 0.4348 0.6666
vt 0.4416 0.6666
vt 0.4483 0.6680
vt 0.4546 0.6706
vt 0.4603 0.6744
vt 0.4652 0.6793
vt 0.4689 0.6850
vt 0.4716 0.6913
vt 0.4729 0.6980
vt 0.4729 0.7049
vt 0.4716 0.7116
vt 0.4689 0.7180
vt 0.4652 0.7237
vt 0.4603 0.7285
vt 0.4546 0.7323
vt 0.7418 0.7415
vt 0.7418 0.8114
vt 0.3723 0.6666
vt 0.3790 0.6679
vt 0.3853 0.6706
vt 0.3910 0.6744
vt 0.3958 0.6792
vt 0.3996 0.6849
vt 0.4022 0.6912
vt 0.4035 0.6980
vt 0.4035 0.7048
vt 0.4022 0.7116
vt 0.3996 0.7179
vt 0.3958 0.7236
vt 0.3910 0.7285
vt 0.3853 0.7323
vt 0.3790 0.7349
vt 0.3723 0.7362
vt 0.3655 0.7363
vt 0.3588 0.7349
vt 0.3524 0.7323
vt 0.3468 0.7285
vt 0.3419 0.7237
vt 0.3381 0.7180
vt 0.3355 0.7116
vt 0.3342 0.7049
vt 0.3342 0.6980
vt 0.3355 0.6913
vt 0.3381 0.6850
vt 0.3419 0.6793
vt 0.3468 0.6744
vt 0.3524 0.6706
vt 0.3588 0.6680
vt 0.3655 0.6666
vt 0.0000 0.0000
vt 0.3342 0.0000
vt 0.3342 0.3333
vt 0.0000 0.3333
vt 0.6684 0.3333
vt 0.3342 0.3333
vt 0.3342 0.0000
vt 0.6684 0.0000
vt 0.6681 0.3333
vt 0.6681 0.6666
vt 0.3342 0.6666
vt 0.3342 0.3333
vt 1.0000 0.3334
vt 1.0000 0.6667
vt 0.6681 0.6666
vt 0.6681 0.3333
vt 0.3339 0.3333
vt 0.3339 0.6666
vt 0.0000 0.6666
vt 0.0000 1.0000
vt 0.0000 0.6667
vt 0.3319 0.6666
vt 0.3319 0.9999
vn -0.0096 -0.0918 -0.9957
vn -0.0060 -0.2843 -0.9587
vn -0.0022 -0.4659 -0.8849
vn 0.0018 -0.6295 -0.7770
vn 0.0056 -0.7690 -0.6393
vn 0.0092 -0.8789 -0.4770
vn 0.0125 -0.9550 -0.2964
vn 0.0153 -0.9944 -0.1044
vn 0.0175 -0.9956 0.0917
vn 0.0191 -0.9586 0.2842
vn 0.0199 -0.8847 0.4657
vn 0.0199 -0.7768 0.6294
vn 0.0192 -0.6391 0.7689
vn 0.0177 -0.4768 0.8788
vn 0.0156 -0.2962 0.9550
vn 0.0128 -0.1042 0.9945
vn 0.0096 0.0918 0.9957
vn 0.0060 0.2843 0.9587
vn 0.0022 0.4659 0.8849
vn -0.0018 0.6295 0.7770
vn -0.0056 0.7690 0.6393
vn -0.0092 0.8789 0.4770
vn -0.0125 0.9550 0.2964
vn -0.0153 0.9944 0.1044
vn -0.0175 0.9956 -0.0917
vn -0.0191 0.9586 -0.2842
vn -0.0199 0.8847 -0.4657
vn -0.0199 0.7768 -0.6294
vn -0.0192 0.6391 -0.7689
vn -0.0177 0.4768 -0.8788
vn 0.9998 0.0166 -0.0112
vn -0.0156 0.2962 -0.9550
vn -0.0128 0.1042 -0.9945
vn -0.9998 -0.0166 0.0112
vn 0.0980 0.0000 -0.9952
vn 0.2903 0.0000 -0.9569
vn 0.4714 0.0000 -0.8819
vn 0.6344 0.0000 -0.7730
vn 0.7730 0.0000 -0.6344
vn 0.8819 0.0000 -0.4714
vn 0.9569 0.0000 -0.2903
vn 0.9952 0.0000 -0.0980
vn 0.9952 0.0000 0.0980
vn 0.9569 0.0000 0.2903
vn 0.8819 0.0000 0.4714
vn 0.7730 0.0000 0.6344
vn 0.6344 0.0000 0.7730
vn 0.4714 0.0000 0.8819
vn 0.2903 0.0000 0.9569
vn 0.0980 0.0000 0.9952
vn -0.0980 0.0000 0.9952
vn -0.2903 0.0000 0.9569
vn -0.4714 0.0000 0.8819
vn -0.6344 0.0000 0.7730
vn -0.7730 0.0000 0.6344
vn -0.8819 0.0000 0.4714
vn -0.9569 0.0000 0.2903
vn -0.9952 0.0000 0.0980
vn -0.9952 0.0000 -0.0980
vn -0.9569 0.0000 -0.2903
vn -0.8819 0.0000 -0.4714
vn -0.7730 0.0000 -0.6344
vn -0.6344 0.0000 -0.7730
vn -0.4714 0.0000 -0.8819
vn 0.0000 1.0000 -0.0000
vn -0.2903 0.0000 -0.9569
vn -0.0980 0.0000 -0.9952
vn 0.0000 -1.0000 -0.0000
vn 0.0980 -0.9952 0.0000
vn 0.2903 -0.9569 0.0000
vn 0.4714 -0.8819 0.0000
vn 0.6344 -0.7730 0.0000
vn 0.7730 -0.6344 0.0000
vn 0.8819 -0.4714 0.0000
vn 0.9569 -0.2903 0.0000
vn 0.9952 -0.0980 0.0000
vn 0.9952 0.0980 -0.0000
vn 0.9569 0.2903 -0.0000
vn 0.8819 0.4714 -0.0000
vn 0.7730 0.6344 -0.0000
vn 0.6344 0.7730 -0.0000
vn 0.4714 0.8819 -0.0000
vn 0.2903 0.9569 -0.0000
vn 0.0980 0.9952 -0.0000
vn -0.0980 0.9952 -0.0000
vn -0.2903 0.9569 -0.0000
vn -0.4714 0.8819 -0.0000
vn -0.6344 0.7730 -0.0000
vn -0.7730 0.6344 -0.0000
vn -0.8819 0.4714 -0.0000
vn -0.9569 0.2903 -0.0000
vn -0.9952 0.0980 -0.0000
vn -0.9952 -0.0980 0.0000
vn -0.9569 -0.2903 0.0000
vn -0.8819 -0.4714 0.0000
vn -0.7730 -0.6344 0.0000
vn -0.6344 -0.7730 0.0000
vn -0.4714 -0.8819 0.0000
vn -0.0000 -0.0000 -1.0000
vn -0.2903 -0.9569 0.0000
vn -0.0980 -0.9952 0.0000
vn 0.0000 0.0000 1.0000
vn 1.0000 0.0000 0.0000
vn -1.0000 -0.0000 -0.0000
usemtl Material
s off
f 1/1/1 2/2/1 4/3/1 3/4/1
f 3/4/2 4/3/2 6/5/2 5/6/2
f 5/6/3 6/5/3 8/7/3 7/8/3
f 7/8/4 8/7/4 10/9/4 9/10/4
f 9/11/5 10/12/5 12/13/5 11/14/5
f 11/14/6 12/13/6 14/15/6 13/16/6
f 13/16/7 14/15/7 16/17/7 15/18/7
f 15/18/8 16/17/8 18/19/8 17/20/8
f 17/20/9 18/19/9 20/21/9 19/22/9
f 19/22/10 20/21/10 22/23/10 21/24/10
f 21/24/11 22/23/11 24/25/11 23/26/11
f 23/26/12 24/25/12 26/27/12 25/28/12
f 25/29/13 26/30/13 28/31/13 27/32/13
f 27/32/14 28/31/14 30/33/14 29/34/14
f 29/34/15 30/33/15 32/35/15 31/36/15
f 31/36/16 32/35/16 34/37/16 33/38/16
f 33/38/17 34/37/17 36/39/17 35/40/17
f 35/40/18 36/39/18 38/41/18 37/42/18
f 37/42/19 38/41/19 40/43/19 39/44/19
f 39/44/20 40/43/20 42/45/20 41/46/20
f 41/47/21 42/48/21 44/49/21 43/50/21
f 43/50/22 44/49/22 46/51/22 45/52/22
f 45/52/23 46/51/23 48/53/23 47/54/23
f 47/54/24 48/53/24 50/55/24 49/56/24
f 49/56/25 50/55/25 52/57/25 51/58/25
f 51/58/26 52/57/26 54/59/26 53/60/26
f 53/60/27 54/59/27 56/61/27 55/62/27
f 55/62/28 56/61/28 58/63/28 57/64/28
f 57/65/29 58/66/29 60/67/29 59/68/29
f 59/68/30 60/67/30 62/69/30 61/70/30
f 4/71/31 2/72/31 64/73/31 62/74/31 60/75/31 58/76/31 56/77/31 54/78/31 52/79/31 50/80/31 48/81/31 46/82/31 44/83/31 42/84/31 40/85/31 38/86/31 36/87/31 34/88/31 32/89/31 30/90/31 28/91/31 26/92/31 24/93/31 22/94/31 20/95/31 18/96/31 16/97/31 14/98/31 12/99/31 10/100/31 8/101/31 6/102/31
f 61/70/32 62/69/32 64/103/32 63/104/32
f 63/104/33 64/103/33 2/2/33 1/1/33
f 1/105/34 3/106/34 5/107/34 7/108/34 9/109/34 11/110/34 13/111/34 15/112/34 17/113/34 19/114/34 21/115/34 23/116/34 25/117/34 27/118/34 29/119/34 31/120/34 33/121/34 35/122/34 37/123/34 39/124/34 41/125/34 43/126/34 45/127/34 47/128/34 49/129/34 51/130/34 53/131/34 55/132/34 57/133/34 59/134/34 61/135/34 63/136/34
f 65/137/35 66/138/35 68/139/35 67/140/35
f 67/140/36 68/139/36 70/141/36 69/142/36
f 69/142/37 70/141/37 72/143/37 71/144/37
f 71/144/38 72/143/38 74/145/38 73/146/38
f 73/147/39 74/148/39 76/149/39 75/150/39
f 75/150/40 76/149/40 78/151/40 77/152/40
f 77/152/41 78/151/41 80/153/41 79/154/41
f 79/154/42 80/153/42 82/155/42 81/156/42
f 81/156/43 82/155/43 84/157/43 83/158/43
f 83/158/44 84/157/44 86/159/44 85/160/44
f 85/160/45 86/159/45 88/161/45 87/162/45
f 87/162/46 88/161/46 90/163/46 89/164/46
f 89/165/47 90/166/47 92/167/47 91/168/47
f 91/168/48 92/167/48 94/169/48 93/170/48
f 93/170/49 94/169/49 96/171/49 95/172/49
f 95/172/50 96/171/50 98/173/50 97/174/50
f 97/174/51 98/173/51 100/175/51 99/176/51
f 99/176/52 100/175/52 102/177/52 101/178/52
f 101/178/53 102/177/53 104/179/53 103/180/53
f 103/180/54 104/179/54 106/181/54 105/182/54
f 105/183/55 106/184/55 108/185/55 107/186/55
f 107/186/56 108/185/56 110/187/56 109/188/56
f 109/188/57 110/187/57 112/189/57 111/190/57
f 111/190/58 112/189/58 114/191/58 113/192/58
f 113/192/59 114/191/59 116/193/59 115/194/59
f 115/194/60 116/193/60 118/195/60 117/196/60
f 117/196/61 118/195/61 120/197/61 119/198/61
f 119/198/62 120/197/62 122/199/62 121/200/62
f 121/201/63 122/202/63 124/203/63 123/204/63
f 123/204/64 124/203/64 126/205/64 125/206/64
f 68/207/65 66/208/65 128/209/65 126/210/65 124/211/65 122/212/65 120/213/65 118/214/65 116/215/65 114/216/65 112/217/65 110/218/65 108/219/65 106/220/65 104/221/65 102/222/65 100/223/65 98/224/65 96/225/65 94/226/65 92/227/65 90/228/65 88/229/65 86/230/65 84/231/65 82/232/65 80/233/65 78/234/65 76/235/65 74/236/65 72/237/65 70/238/65
f 125/206/66 126/205/66 128/239/66 127/240/66
f 127/240/67 128/239/67 66/138/67 65/137/67
f 65/241/68 67/242/68 69/243/68 71/244/68 73/245/68 75/246/68 77/247/68 79/248/68 81/249/68 83/250/68 85/251/68 87/252/68 89/253/68 91/254/68 93/255/68 95/256/68 97/257/68 99/258/68 101/259/68 103/260/68 105/261/68 107/262/68 109/263/68 111/264/68 113/265/68 115/266/68 117/267/68 119/268/68 121/269/68 123/270/68 125/271/68 127/272/68
f 129/273/69 130/274/69 132/275/69 131/276/69
f 131/276/70 132/275/70 134/277/70 133/278/70
f 133/278/71 134/277/71 136/279/71 135/280/71
f 135/280/72 136/279/72 138/281/72 137/282/72
f 137/283/73 138/284/73 140/285/73 139/286/73
f 139/286/74 140/285/74 142/287/74 141/288/74
f 141/288/75 142/287/75 144/289/75 143/290/75
f 143/290/76 144/289/76 146/291/76 145/292/76
f 145/292/77 146/291/77 148/293/77 147/294/77
f 147/294/78 148/293/78 150/295/78 149/296/78
f 149/296/79 150/295/79 152/297/79 151/298/79
f 151/298/80 152/297/80 154/299/80 153/300/80
f 153/301/81 154/302/81 156/303/81 155/304/81
f 155/304/82 156/303/82 158/305/82 157/306/82
f 157/306/83 158/305/83 160/307/83 159/308/83
f 159/308/84 160/307/84 162/309/84 161/310/84
f 161/310/85 162/309/85 164/311/85 163/312/85
f 163/312/86 164/311/86 166/313/86 165/314/86
f 165/314/87 166/313/87 168/315/87 167/316/87
f 167/316/88 168/315/88 170/317/88 169/318/88
f 169/319/89 170/320/89 172/321/89 171/322/89
f 171/322/90 172/321/90 174/323/90 173/324/90
f 173/324/91 174/323/91 176/325/91 175/326/91
f 175/326/92 176/325/92 178/327/92 177/328/92
f 177/328/93 178/327/93 180/329/93 179/330/93
f 179/330/94 180/329/94 182/331/94 181/332/94
f 181/332/95 182/331/95 184/333/95 183/334/95
f 183/334/96 184/333/96 186/335/96 185/336/96
f 185/337/97 186/338/97 188/339/97 187/340/97
f 187/340/98 188/339/98 190/341/98 189/342/98
f 132/343/99 130/344/99 192/345/99 190/346/99 188/347/99 186/348/99 184/349/99 182/350/99 180/351/99 178/352/99 176/353/99 174/354/99 172/355/99 170/356/99 168/357/99 166/358/99 164/359/99 162/360/99 160/361/99 158/362/99 156/363/99 154/364/99 152/365/99 150/366/99 148/367/99 146/368/99 144/369/99 142/370/99 140/371/99 138/372/99 136/373/99 134/374/99
f 189/342/100 190/341/100 192/375/100 191/376/100
f 191/376/101 192/375/101 130/274/101 129/273/101
f 129/377/102 131/378/102 133/379/102 135/380/102 137/381/102 139/382/102 141/383/102 143/384/102 145/385/102 147/386/102 149/387/102 151/388/102 153/389/102 155/390/102 157/391/102 159/392/102 161/393/102 163/394/102 165/395/102 167/396/102 169/397/102 171/398/102 173/399/102 175/400/102 177/401/102 179/402/102 181/403/102 183/404/102 185/405/102 187/406/102 189/407/102 191/408/102
f 193/409/68 194/410/68 195/411/68 196/412/68
f 197/413/65 200/414/65 199/415/65 198/416/65
f 193/417/103 197/418/103 198/419/103 194/420/103
f 194/421/102 198/422/102 199/423/102 195/424/102
f 195/425/104 199/426/104 200/427/104 196/412/104
f 197/428/99 193/429/99 196/430/99 200/431/99
