# Blender v2.78 (sub 0) OBJ File: ''
# www.blender.org
mtllib unit_cone.mtl
o Cone
v 0.000000 -1.000000 -1.000000
v 0.195090 -1.000000 -0.980785
v 0.382683 -1.000000 -0.923880
v 0.555570 -1.000000 -0.831470
v 0.707107 -1.000000 -0.707107
v 0.831470 -1.000000 -0.555570
v 0.923880 -1.000000 -0.382683
v 0.980785 -1.000000 -0.195090
v 1.000000 -1.000000 -0.000000
v 0.000000 1.000000 0.000000
v 0.980785 -1.000000 0.195090
v 0.923880 -1.000000 0.382683
v 0.831470 -1.000000 0.555570
v 0.707107 -1.000000 0.707107
v 0.555570 -1.000000 0.831470
v 0.382683 -1.000000 0.923880
v 0.195090 -1.000000 0.980785
v -0.000000 -1.000000 1.000000
v -0.195091 -1.000000 0.980785
v -0.382684 -1.000000 0.923879
v -0.555571 -1.000000 0.831469
v -0.707107 -1.000000 0.707106
v -0.831470 -1.000000 0.555570
v -0.923880 -1.000000 0.382683
v -0.980785 -1.000000 0.195089
v -1.000000 -1.000000 -0.000001
v -0.980785 -1.000000 -0.195091
v -0.923879 -1.000000 -0.382684
v -0.831469 -1.000000 -0.555571
v -0.707106 -1.000000 -0.707108
v -0.555569 -1.000000 -0.831470
v -0.382682 -1.000000 -0.923880
v -0.195089 -1.000000 -0.980786
vt 0.5000 0.3693
vt 0.5000 0.6307
vt 0.5255 0.3693
vt 0.5500 0.3693
vt 0.5726 0.3693
vt 0.5924 0.3693
vt 0.6087 0.3693
vt 0.6208 0.3693
vt 0.6282 0.3693
vt 0.6307 0.3693
vt 0.6282 0.3693
vt 0.6208 0.3693
vt 0.6087 0.3693
vt 0.5924 0.3693
vt 0.5726 0.3693
vt 0.5500 0.3693
vt 0.5255 0.3693
vt 0.5000 0.3693
vt 0.4745 0.3693
vt 0.4500 0.3693
vt 0.4274 0.3693
vt 0.4076 0.3693
vt 0.3913 0.3693
vt 0.3792 0.3693
vt 0.3718 0.3693
vt 0.3693 0.3693
vt 0.3718 0.3693
vt 0.3792 0.3693
vt 0.3913 0.3693
vt 0.4076 0.3693
vt 0.4274 0.3693
vt 0.4500 0.3693
vt 0.4745 0.3693
vn 0.0878 0.4455 -0.8910
vn 0.2599 0.4455 -0.8567
vn 0.4220 0.4455 -0.7896
vn 0.5680 0.4455 -0.6921
vn 0.6921 0.4455 -0.5680
vn 0.7896 0.4455 -0.4220
vn 0.8567 0.4455 -0.2599
vn 0.8910 0.4455 -0.0878
vn 0.8910 0.4455 0.0878
vn 0.8567 0.4455 0.2599
vn 0.7896 0.4455 0.4220
vn 0.6921 0.4455 0.5680
vn 0.5680 0.4455 0.6921
vn 0.4220 0.4455 0.7896
vn 0.2599 0.4455 0.8567
vn 0.0878 0.4455 0.8910
vn -0.0878 0.4455 0.8910
vn -0.2599 0.4455 0.8567
vn -0.4220 0.4455 0.7896
vn -0.5680 0.4455 0.6921
vn -0.6921 0.4455 0.5680
vn -0.7896 0.4455 0.4220
vn -0.8567 0.4455 0.2599
vn -0.8910 0.4455 0.0878
vn -0.8910 0.4455 -0.0878
vn -0.8567 0.4455 -0.2599
vn -0.7896 0.4455 -0.4220
vn -0.6921 0.4455 -0.5680
vn -0.5680 0.4455 -0.6921
vn -0.4220 0.4455 -0.7896
vn -0.2599 0.4455 -0.8567
vn -0.0878 0.4455 -0.8910
vn 0.0000 -1.0000 0.0000
usemtl Material.001
s off
f 1/1/1 10/2/1 2/3/1
f 2/3/2 10/2/2 3/4/2
f 3/4/3 10/2/3 4/5/3
f 4/5/4 10/2/4 5/6/4
f 5/6/5 10/2/5 6/7/5
f 6/7/6 10/2/6 7/8/6
f 7/8/7 10/2/7 8/9/7
f 8/9/8 10/2/8 9/10/8
f 9/10/9 10/2/9 11/11/9
f 11/11/10 10/2/10 12/12/10
f 12/12/11 10/2/11 13/13/11
f 13/13/12 10/2/12 14/14/12
f 14/14/13 10/2/13 15/15/13
f 15/15/14 10/2/14 16/16/14
f 16/16/15 10/2/15 17/17/15
f 17/17/16 10/2/16 18/18/16
f 18/18/17 10/2/17 19/19/17
f 19/19/18 10/2/18 20/20/18
f 20/20/19 10/2/19 21/21/19
f 21/21/20 10/2/20 22/22/20
f 22/22/21 10/2/21 23/23/21
f 23/23/22 10/2/22 24/24/22
f 24/24/23 10/2/23 25/25/23
f 25/25/24 10/2/24 26/26/24
f 26/26/25 10/2/25 27/27/25
f 27/27/26 10/2/26 28/28/26
f 28/28/27 10/2/27 29/29/27
f 29/29/28 10/2/28 30/30/28
f 30/30/29 10/2/29 31/31/29
f 31/31/30 10/2/30 32/32/30
f 32/32/31 10/2/31 33/33/31
f 33/33/32 10/2/32 1/1/32
f 17/17/33 25/25/33 8/9/33
f 33/33/33 1/1/33 2/3/33
f 2/3/33 3/4/33 4/5/33
f 4/5/33 5/6/33 6/7/33
f 6/7/33 7/8/33 4/5/33
f 8/9/33 9/10/33 11/11/33
f 11/11/33 12/12/33 8/9/33
f 13/13/33 14/14/33 17/17/33
f 15/15/33 16/16/33 17/17/33
f 17/17/33 18/18/33 19/19/33
f 19/19/33 20/20/33 21/21/33
f 21/21/33 22/22/33 23/23/33
f 23/23/33 24/24/33 25/25/33
f 25/25/33 26/26/33 27/27/33
f 27/27/33 28/28/33 29/29/33
f 29/29/33 30/30/33 33/33/33
f 31/31/33 32/32/33 33/33/33
f 33/33/33 2/3/33 8/9/33
f 4/5/33 7/8/33 8/9/33
f 8/9/33 12/12/33 13/13/33
f 14/14/33 15/15/33 17/17/33
f 17/17/33 19/19/33 25/25/33
f 21/21/33 23/23/33 25/25/33
f 25/25/33 27/27/33 33/33/33
f 30/30/33 31/31/33 33/33/33
f 2/3/33 4/5/33 8/9/33
f 8/9/33 13/13/33 17/17/33
f 19/19/33 21/21/33 25/25/33
f 27/27/33 29/29/33 33/33/33
f 33/33/33 8/9/33 25/25/33
