# Blender v2.78 (sub 0) OBJ File: ''
# www.blender.org
mtllib arrow.mtl
o Cone
v -0.001207 2.928444 -0.211762
v 0.039406 2.928444 -0.207762
v 0.078458 2.928444 -0.195916
v 0.114449 2.928444 -0.176678
v 0.145995 2.928444 -0.150789
v 0.171884 2.928444 -0.119243
v 0.191121 2.928444 -0.083252
v 0.202968 2.928444 -0.044200
v 0.206968 2.928444 -0.003587
v -0.001207 3.843603 -0.003587
v 0.202968 2.928444 0.037026
v 0.191121 2.928444 0.076078
v 0.171884 2.928444 0.112069
v 0.145995 2.928444 0.143615
v 0.114449 2.928444 0.169504
v 0.078458 2.928444 0.188741
v 0.039406 2.928444 0.200588
v -0.001207 2.928444 0.204588
v -0.041820 2.928444 0.200588
v -0.080872 2.928444 0.188741
v -0.116863 2.928444 0.169504
v -0.148409 2.928444 0.143615
v -0.174298 2.928444 0.112068
v -0.193536 2.928444 0.076078
v -0.205382 2.928444 0.037026
v -0.209382 2.928444 -0.003587
v -0.205382 2.928444 -0.044200
v -0.193535 2.928444 -0.083252
v -0.174298 2.928444 -0.119243
v -0.148409 2.928444 -0.150789
v -0.116863 2.928444 -0.176678
v -0.080872 2.928444 -0.195916
v -0.041820 2.928444 -0.207762
v -0.000133 2.922420 0.076900
v -0.000133 0.011813 0.076900
v -0.019938 2.922420 0.075200
v -0.019938 0.011813 0.075200
v -0.038981 2.922420 0.070166
v -0.038981 0.011813 0.070166
v -0.056532 2.922420 0.061991
v -0.056532 0.011813 0.061991
v -0.071915 2.922420 0.050989
v -0.071915 0.011813 0.050989
v -0.084540 2.922420 0.037583
v -0.084540 0.011813 0.037583
v -0.093921 2.922420 0.022288
v -0.093921 0.011813 0.022288
v -0.099698 2.922420 0.005693
v -0.099698 0.011813 0.005693
v -0.101648 2.922420 -0.011566
v -0.101648 0.011813 -0.011566
v -0.099698 2.922420 -0.028825
v -0.099698 0.011813 -0.028825
v -0.093921 2.922420 -0.045421
v -0.093921 0.011813 -0.045421
v -0.084540 2.922420 -0.060715
v -0.084540 0.011813 -0.060715
v -0.071915 2.922420 -0.074121
v -0.071915 0.011813 -0.074121
v -0.056532 2.922420 -0.085123
v -0.056532 0.011813 -0.085123
v -0.038981 2.922420 -0.093298
v -0.038981 0.011813 -0.093298
v -0.019938 2.922420 -0.098333
v -0.019938 0.011813 -0.098333
v -0.000133 2.922420 -0.100032
v -0.000133 0.011813 -0.100032
v 0.019671 2.922420 -0.098333
v 0.019671 0.011813 -0.098333
v 0.038715 2.922420 -0.093298
v 0.038715 0.011813 -0.093298
v 0.056265 2.922420 -0.085123
v 0.056265 0.011813 -0.085123
v 0.071649 2.922420 -0.074121
v 0.071649 0.011813 -0.074121
v 0.084273 2.922420 -0.060715
v 0.084273 0.011813 -0.060715
v 0.093654 2.922420 -0.045421
v 0.093654 0.011813 -0.045421
v 0.099431 2.922420 -0.028825
v 0.099431 0.011813 -0.028825
v 0.101382 2.922420 -0.011566
v 0.101382 0.011813 -0.011566
v 0.099431 2.922420 0.005693
v 0.099431 0.011813 0.005693
v 0.093654 2.922420 0.022288
v 0.093654 0.011813 0.022288
v 0.084273 2.922420 0.037583
v 0.084273 0.011813 0.037583
v 0.071648 2.922420 0.050989
v 0.071648 0.011813 0.050989
v 0.056265 2.922420 0.061991
v 0.056265 0.011813 0.061991
v 0.038715 2.922420 0.070166
v 0.038715 0.011813 0.070166
v 0.019671 2.922420 0.075200
v 0.019671 0.011813 0.075200
vt 0.4998 0.6819
vt 0.4998 0.8105
vt 0.5049 0.6821
vt 0.5098 0.6826
vt 0.5144 0.6834
vt 0.5184 0.6845
vt 0.5218 0.6858
vt 0.5245 0.6874
vt 0.5263 0.6891
vt 0.5270 0.6910
vt 0.5268 0.6929
vt 0.5254 0.6947
vt 0.5231 0.6964
vt 0.5198 0.6979
vt 0.5156 0.6992
vt 0.5107 0.7002
vt 0.5054 0.7008
vt 0.4998 0.7010
vt 0.4943 0.7008
vt 0.4889 0.7002
vt 0.4841 0.6992
vt 0.4799 0.6979
vt 0.4766 0.6964
vt 0.4742 0.6947
vt 0.4729 0.6929
vt 0.4727 0.6910
vt 0.4734 0.6891
vt 0.4752 0.6874
vt 0.4778 0.6858
vt 0.4813 0.6845
vt 0.4853 0.6834
vt 0.4899 0.6826
vt 0.4948 0.6821
vt 0.5000 0.3063
vt 0.4973 0.6938
vt 0.5000 0.6939
vt 0.4973 0.3064
vt 0.4948 0.6936
vt 0.4948 0.3066
vt 0.4925 0.6932
vt 0.4925 0.3070
vt 0.4905 0.6927
vt 0.4905 0.3075
vt 0.4888 0.6921
vt 0.4888 0.3081
vt 0.4877 0.6914
vt 0.4877 0.3088
vt 0.4869 0.6906
vt 0.4869 0.3096
vt 0.4867 0.6898
vt 0.4867 0.3104
vt 0.4871 0.6891
vt 0.4871 0.3111
vt 0.4879 0.6883
vt 0.4879 0.3119
vt 0.4891 0.6876
vt 0.4891 0.3126
vt 0.4908 0.6870
vt 0.4908 0.3132
vt 0.4928 0.6866
vt 0.4928 0.3136
vt 0.4950 0.6862
vt 0.4950 0.3140
vt 0.4975 0.6860
vt 0.4975 0.3142
vt 0.5000 0.6859
vt 0.5000 0.3143
vt 0.5025 0.6860
vt 0.5025 0.3142
vt 0.5050 0.6862
vt 0.5050 0.3140
vt 0.5072 0.6866
vt 0.5072 0.3136
vt 0.5092 0.6870
vt 0.5092 0.3132
vt 0.5109 0.6876
vt 0.5109 0.3126
vt 0.5121 0.6883
vt 0.5121 0.3119
vt 0.5129 0.6891
vt 0.5129 0.3111
vt 0.5132 0.6898
vt 0.5132 0.3104
vt 0.5130 0.6906
vt 0.5130 0.3096
vt 0.5123 0.6914
vt 0.5123 0.3088
vt 0.5111 0.6921
vt 0.5111 0.3081
vt 0.5095 0.6927
vt 0.5095 0.3075
vt 0.5075 0.6932
vt 0.5075 0.3070
vt 0.5051 0.6936
vt 0.5051 0.3066
vt 0.5026 0.6938
vt 0.5026 0.3064
vn 0.0956 0.2208 -0.9706
vn 0.2831 0.2208 -0.9333
vn 0.4598 0.2208 -0.8602
vn 0.6187 0.2208 -0.7539
vn 0.7539 0.2208 -0.6187
vn 0.8602 0.2208 -0.4598
vn 0.9333 0.2208 -0.2831
vn 0.9706 0.2208 -0.0956
vn 0.9706 0.2208 0.0956
vn 0.9333 0.2208 0.2831
vn 0.8602 0.2208 0.4598
vn 0.7539 0.2208 0.6187
vn 0.6187 0.2208 0.7539
vn 0.4598 0.2208 0.8602
vn 0.2831 0.2208 0.9333
vn 0.0956 0.2208 0.9706
vn -0.0956 0.2208 0.9706
vn -0.2831 0.2208 0.9333
vn -0.4598 0.2208 0.8602
vn -0.6187 0.2208 0.7539
vn -0.7539 0.2208 0.6187
vn -0.8602 0.2208 0.4598
vn -0.9333 0.2208 0.2831
vn -0.9706 0.2208 0.0956
vn -0.9706 0.2208 -0.0956
vn -0.9333 0.2208 -0.2831
vn -0.8602 0.2208 -0.4598
vn -0.7539 0.2208 -0.6187
vn -0.6187 0.2208 -0.7539
vn -0.4598 0.2208 -0.8602
vn -0.2831 0.2208 -0.9333
vn -0.0956 0.2208 -0.9706
vn 0.0000 -1.0000 0.0000
vn 0.0855 0.0000 -0.9963
vn 0.2556 0.0000 -0.9668
vn 0.4222 0.0000 -0.9065
vn 0.5817 0.0000 -0.8134
vn 0.7280 0.0000 -0.6856
vn 0.8524 0.0000 -0.5228
vn 0.9444 0.0000 -0.3287
vn 0.9937 0.0000 -0.1123
vn 0.9937 -0.0000 0.1123
vn 0.9444 0.0000 0.3287
vn 0.8524 0.0000 0.5228
vn 0.7280 0.0000 0.6856
vn 0.5817 0.0000 0.8134
vn 0.4222 0.0000 0.9065
vn 0.2556 0.0000 0.9668
vn 0.0855 0.0000 0.9963
vn -0.0855 0.0000 0.9963
vn -0.2556 0.0000 0.9668
vn -0.4222 0.0000 0.9065
vn -0.5817 0.0000 0.8134
vn -0.7280 0.0000 0.6856
vn -0.8524 0.0000 0.5228
vn -0.9444 0.0000 0.3287
vn -0.9937 0.0000 0.1123
vn -0.9937 -0.0000 -0.1123
vn -0.9444 0.0000 -0.3287
vn -0.8524 0.0000 -0.5228
vn -0.7280 0.0000 -0.6856
vn -0.5817 0.0000 -0.8134
vn -0.4222 0.0000 -0.9065
vn 0.0000 1.0000 -0.0000
vn -0.2556 0.0000 -0.9668
vn -0.0855 0.0000 -0.9963
vn 0.0000 -1.0000 -0.0001
usemtl Material.001
s off
f 1/1/1 10/2/1 2/3/1
f 2/3/2 10/2/2 3/4/2
f 3/4/3 10/2/3 4/5/3
f 4/5/4 10/2/4 5/6/4
f 5/6/5 10/2/5 6/7/5
f 6/7/6 10/2/6 7/8/6
f 7/8/7 10/2/7 8/9/7
f 8/9/8 10/2/8 9/10/8
f 9/10/9 10/2/9 11/11/9
f 11/11/10 10/2/10 12/12/10
f 12/12/11 10/2/11 13/13/11
f 13/13/12 10/2/12 14/14/12
f 14/14/13 10/2/13 15/15/13
f 15/15/14 10/2/14 16/16/14
f 16/16/15 10/2/15 17/17/15
f 17/17/16 10/2/16 18/18/16
f 18/18/17 10/2/17 19/19/17
f 19/19/18 10/2/18 20/20/18
f 20/20/19 10/2/19 21/21/19
f 21/21/20 10/2/20 22/22/20
f 22/22/21 10/2/21 23/23/21
f 23/23/22 10/2/22 24/24/22
f 24/24/23 10/2/23 25/25/23
f 25/25/24 10/2/24 26/26/24
f 26/26/25 10/2/25 27/27/25
f 27/27/26 10/2/26 28/28/26
f 28/28/27 10/2/27 29/29/27
f 29/29/28 10/2/28 30/30/28
f 30/30/29 10/2/29 31/31/29
f 31/31/30 10/2/30 32/32/30
f 32/32/31 10/2/31 33/33/31
f 33/33/32 10/2/32 1/1/32
f 17/17/33 25/25/33 8/9/33
f 35/34/34 36/35/34 34/36/34
f 37/37/35 38/38/35 36/35/35
f 39/39/36 40/40/36 38/38/36
f 41/41/37 42/42/37 40/40/37
f 43/43/38 44/44/38 42/42/38
f 45/45/39 46/46/39 44/44/39
f 47/47/40 48/48/40 46/46/40
f 49/49/41 50/50/41 48/48/41
f 51/51/42 52/52/42 50/50/42
f 53/53/43 54/54/43 52/52/43
f 55/55/44 56/56/44 54/54/44
f 57/57/45 58/58/45 56/56/45
f 59/59/46 60/60/46 58/58/46
f 61/61/47 62/62/47 60/60/47
f 63/63/48 64/64/48 62/62/48
f 65/65/49 66/66/49 64/64/49
f 67/67/50 68/68/50 66/66/50
f 69/69/51 70/70/51 68/68/51
f 71/71/52 72/72/52 70/70/52
f 73/73/53 74/74/53 72/72/53
f 75/75/54 76/76/54 74/74/54
f 77/77/55 78/78/55 76/76/55
f 79/79/56 80/80/56 78/78/56
f 81/81/57 82/82/57 80/80/57
f 83/83/58 84/84/58 82/82/58
f 85/85/59 86/86/59 84/84/59
f 87/87/60 88/88/60 86/86/60
f 89/89/61 90/90/61 88/88/61
f 91/91/62 92/92/62 90/90/62
f 93/93/63 94/94/63 92/92/63
f 59/59/64 41/41/64 61/61/64
f 95/95/65 96/96/65 94/94/65
f 97/97/66 34/36/66 96/96/66
f 72/72/33 94/94/33 70/70/33
f 33/33/33 1/1/33 2/3/33
f 2/3/33 3/4/33 4/5/33
f 4/5/33 5/6/33 6/7/33
f 6/7/33 7/8/33 4/5/33
f 8/9/33 9/10/33 11/11/33
f 11/11/33 12/12/33 8/9/33
f 13/13/33 14/14/33 17/17/33
f 15/15/33 16/16/33 17/17/33
f 17/17/33 18/18/33 19/19/33
f 19/19/67 20/20/67 21/21/67
f 21/21/33 22/22/33 23/23/33
f 23/23/33 24/24/33 25/25/33
f 25/25/33 26/26/33 27/27/33
f 27/27/33 28/28/33 29/29/33
f 29/29/33 30/30/33 33/33/33
f 31/31/33 32/32/33 33/33/33
f 33/33/33 2/3/33 8/9/33
f 4/5/33 7/8/33 8/9/33
f 8/9/33 12/12/33 13/13/33
f 14/14/33 15/15/33 17/17/33
f 17/17/33 19/19/33 25/25/33
f 21/21/33 23/23/33 25/25/33
f 25/25/33 27/27/33 33/33/33
f 30/30/33 31/31/33 33/33/33
f 2/3/33 4/5/33 8/9/33
f 8/9/33 13/13/33 17/17/33
f 19/19/33 21/21/33 25/25/33
f 27/27/33 29/29/33 33/33/33
f 33/33/33 8/9/33 25/25/33
f 35/34/34 37/37/34 36/35/34
f 37/37/35 39/39/35 38/38/35
f 39/39/36 41/41/36 40/40/36
f 41/41/37 43/43/37 42/42/37
f 43/43/38 45/45/38 44/44/38
f 45/45/39 47/47/39 46/46/39
f 47/47/40 49/49/40 48/48/40
f 49/49/41 51/51/41 50/50/41
f 51/51/42 53/53/42 52/52/42
f 53/53/43 55/55/43 54/54/43
f 55/55/44 57/57/44 56/56/44
f 57/57/45 59/59/45 58/58/45
f 59/59/46 61/61/46 60/60/46
f 61/61/47 63/63/47 62/62/47
f 63/63/48 65/65/48 64/64/48
f 65/65/49 67/67/49 66/66/49
f 67/67/50 69/69/50 68/68/50
f 69/69/51 71/71/51 70/70/51
f 71/71/52 73/73/52 72/72/52
f 73/73/53 75/75/53 74/74/53
f 75/75/54 77/77/54 76/76/54
f 77/77/55 79/79/55 78/78/55
f 79/79/56 81/81/56 80/80/56
f 81/81/57 83/83/57 82/82/57
f 83/83/58 85/85/58 84/84/58
f 85/85/59 87/87/59 86/86/59
f 87/87/60 89/89/60 88/88/60
f 89/89/61 91/91/61 90/90/61
f 91/91/62 93/93/62 92/92/62
f 93/93/63 95/95/63 94/94/63
f 39/39/64 37/37/64 65/65/64
f 35/34/64 97/97/64 69/69/64
f 95/95/64 93/93/64 71/71/64
f 91/91/64 89/89/64 75/75/64
f 87/87/64 85/85/64 81/81/64
f 83/83/64 81/81/64 85/85/64
f 79/79/64 77/77/64 87/87/64
f 75/75/64 73/73/64 91/91/64
f 71/71/64 69/69/64 97/97/64
f 67/67/64 65/65/64 37/37/64
f 63/63/64 61/61/64 39/39/64
f 59/59/64 57/57/64 43/43/64
f 55/55/64 53/53/64 49/49/64
f 51/51/64 49/49/64 53/53/64
f 47/47/64 45/45/64 55/55/64
f 43/43/64 41/41/64 59/59/64
f 37/37/64 35/34/64 67/67/64
f 93/93/64 73/73/64 71/71/64
f 87/87/64 81/81/64 79/79/64
f 77/77/64 89/89/64 87/87/64
f 69/69/64 67/67/64 35/34/64
f 61/61/64 41/41/64 39/39/64
f 55/55/64 49/49/64 47/47/64
f 45/45/64 57/57/64 55/55/64
f 97/97/64 95/95/64 71/71/64
f 77/77/64 75/75/64 89/89/64
f 65/65/64 63/63/64 39/39/64
f 45/45/64 43/43/64 57/57/64
f 91/91/64 73/73/64 93/93/64
f 95/95/65 97/97/65 96/96/65
f 97/97/66 35/34/66 34/36/66
f 96/96/33 34/36/33 66/66/33
f 36/35/33 38/38/33 64/64/33
f 40/40/33 42/42/33 58/58/33
f 44/44/33 46/46/33 56/56/33
f 48/48/33 50/50/33 52/52/33
f 52/52/33 54/54/33 48/48/33
f 56/56/33 58/58/33 42/42/33
f 60/60/33 62/62/33 40/40/33
f 64/64/33 66/66/33 34/36/33
f 68/68/33 70/70/33 96/96/33
f 72/72/33 74/74/33 90/90/33
f 76/76/33 78/78/33 88/88/33
f 80/80/33 82/82/33 84/84/33
f 84/84/33 86/86/33 80/80/33
f 88/88/33 90/90/33 74/74/33
f 92/92/33 94/94/33 72/72/33
f 34/36/33 36/35/33 64/64/33
f 42/42/33 44/44/33 56/56/33
f 48/48/33 54/54/33 46/46/33
f 58/58/33 60/60/33 40/40/33
f 66/66/33 68/68/33 96/96/33
f 74/74/33 76/76/33 88/88/33
f 80/80/33 86/86/33 78/78/33
f 90/90/33 92/92/33 72/72/33
f 38/38/33 62/62/33 64/64/33
f 54/54/33 56/56/33 46/46/33
f 70/70/33 94/94/33 96/96/33
f 86/86/33 88/88/33 78/78/33
f 40/40/33 62/62/33 38/38/33
